<svg width="80" height="80" viewBox="0 0 80 80" fill="none" xmlns="http://www.w3.org/2000/svg">
<path d="M70 20H48.3344L39.6656 13.5C38.7989 12.8533 37.747 12.5027 36.6656 12.5H22.5C21.1739 12.5 19.9021 13.0268 18.9645 13.9645C18.0268 14.9021 17.5 16.1739 17.5 17.5V22.5H12.5C11.1739 22.5 9.90215 23.0268 8.96447 23.9645C8.02678 24.9021 7.5 26.1739 7.5 27.5V62.5C7.5 63.8261 8.02678 65.0979 8.96447 66.0355C9.90215 66.9732 11.1739 67.5 12.5 67.5H60.2781C61.5299 67.4983 62.73 67.0003 63.6152 66.1152C64.5003 65.23 64.9983 64.0299 65 62.7781V57.5H70.2781C71.5299 57.4983 72.73 57.0003 73.6152 56.1152C74.5003 55.23 74.9983 54.0299 75 52.7781V25C75 23.6739 74.4732 22.4021 73.5355 21.4645C72.5979 20.5268 71.3261 20 70 20ZM70 52.5H65V35C65 33.6739 64.4732 32.4021 63.5355 31.4645C62.5979 30.5268 61.3261 30 60 30H38.3344L29.6656 23.5C28.7989 22.8533 27.747 22.5027 26.6656 22.5H22.5V17.5H36.6656L46 24.5C46.4327 24.8246 46.9591 25 47.5 25H70V52.5Z" fill="#BFDBFE"/>
</svg>
