<svg width="25" height="24" viewBox="0 0 25 24" fill="none" xmlns="http://www.w3.org/2000/svg">
<path d="M22.5001 12.4371C22.5001 11.7437 22.4439 11.0465 22.3239 10.3643H12.7017V14.2926H18.2119C17.9832 15.5596 17.2485 16.6804 16.1727 17.3926V19.9415H19.4601C21.3906 18.1648 22.5001 15.5408 22.5001 12.4371Z" fill="#4285F4"/>
<path d="M12.7012 22.4038C15.4525 22.4038 17.7728 21.5004 19.4633 19.9411L16.176 17.3921C15.2613 18.0144 14.0806 18.3667 12.7049 18.3667C10.0435 18.3667 7.78696 16.5712 6.97729 14.1572H3.58496V16.7849C5.31674 20.2297 8.84402 22.4038 12.7012 22.4038Z" fill="#34A853"/>
<path d="M6.97375 14.1575C6.54643 12.8906 6.54643 11.5186 6.97375 10.2517V7.62402H3.58517C2.13828 10.5066 2.13828 13.9027 3.58517 16.7852L6.97375 14.1575Z" fill="#FBBC04"/>
<path d="M12.7012 6.03775C14.1556 6.01526 15.5612 6.56253 16.6145 7.56711L19.5271 4.65458C17.6828 2.9228 15.2351 1.9707 12.7012 2.00069C8.84402 2.00069 5.31674 4.17478 3.58496 7.62334L6.97355 10.251C7.77946 7.83325 10.0398 6.03775 12.7012 6.03775Z" fill="#EA4335"/>
</svg>
