<svg width="21" height="38" viewBox="0 0 21 38" fill="none" xmlns="http://www.w3.org/2000/svg">
<path d="M1.03271 28.7975L10.853 18.9512L19.578 27.6992C20.1829 28.3057 20.1829 29.2892 19.578 29.8957L11.9485 37.5454C11.3435 38.1521 10.3626 38.1521 9.75762 37.5454L1.03271 28.7975Z" fill="url(#paint0_linear_4474_1272)"/>
<g filter="url(#filter0_i_4474_1272)">
<g filter="url(#filter1_d_4474_1272)">
<path d="M10.8467 18.9508L1.02637 9.10449V28.7971L10.8467 18.9508Z" fill="white"/>
</g>
</g>
<path d="M19.4838 8.1046L11.8544 0.454938C11.2494 -0.151646 10.2685 -0.151646 9.66352 0.454938L1 9.14139L1.02631 28.8076L19.4838 10.3012C20.0889 9.69465 20.0889 8.7112 19.4838 8.1046Z" fill="url(#paint1_linear_4474_1272)"/>
<defs>
<filter id="filter0_i_4474_1272" x="1.02637" y="9.10449" width="12.5501" height="22.4222" filterUnits="userSpaceOnUse" color-interpolation-filters="sRGB">
<feFlood flood-opacity="0" result="BackgroundImageFix"/>
<feBlend mode="normal" in="SourceGraphic" in2="BackgroundImageFix" result="shape"/>
<feColorMatrix in="SourceAlpha" type="matrix" values="0 0 0 0 0 0 0 0 0 0 0 0 0 0 0 0 0 0 127 0" result="hardAlpha"/>
<feOffset dx="2.72977" dy="2.72977"/>
<feGaussianBlur stdDeviation="1.5355"/>
<feComposite in2="hardAlpha" operator="arithmetic" k2="-1" k3="1"/>
<feColorMatrix type="matrix" values="0 0 0 0 0.0941176 0 0 0 0 0.152941 0 0 0 0 0.294118 0 0 0 0.4 0"/>
<feBlend mode="normal" in2="shape" result="effect1_innerShadow_4474_1272"/>
</filter>
<filter id="filter1_d_4474_1272" x="0.685146" y="8.76327" width="15.9623" height="25.8344" filterUnits="userSpaceOnUse" color-interpolation-filters="sRGB">
<feFlood flood-opacity="0" result="BackgroundImageFix"/>
<feColorMatrix in="SourceAlpha" type="matrix" values="0 0 0 0 0 0 0 0 0 0 0 0 0 0 0 0 0 0 127 0" result="hardAlpha"/>
<feOffset dx="2.72977" dy="2.72977"/>
<feGaussianBlur stdDeviation="1.5355"/>
<feComposite in2="hardAlpha" operator="out"/>
<feColorMatrix type="matrix" values="0 0 0 0 0.0941176 0 0 0 0 0.152941 0 0 0 0 0.294118 0 0 0 0.4 0"/>
<feBlend mode="normal" in2="BackgroundImageFix" result="effect1_dropShadow_4474_1272"/>
<feBlend mode="normal" in="SourceGraphic" in2="effect1_dropShadow_4474_1272" result="shape"/>
</filter>
<linearGradient id="paint0_linear_4474_1272" x1="1.03947" y1="26.4546" x2="20.6775" y2="30.4356" gradientUnits="userSpaceOnUse">
<stop offset="0.140625" stop-color="#007AFF"/>
<stop offset="1" stop-color="#64D2FF"/>
</linearGradient>
<linearGradient id="paint1_linear_4474_1272" x1="-2.26062" y1="19.3801" x2="22.457" y2="5.28821" gradientUnits="userSpaceOnUse">
<stop offset="0.166667" stop-color="#007AFF"/>
<stop offset="1" stop-color="#64D2FF"/>
</linearGradient>
</defs>
</svg>
