<svg width="186" height="22" viewBox="0 0 186 22" fill="none" xmlns="http://www.w3.org/2000/svg">
<path fill-rule="evenodd" clip-rule="evenodd" d="M28.7979 5.95151L31.9352 13.025H25.7172L27.2578 9.48828C27.395 9.20517 27.4936 8.914 27.6379 8.61354L28.7979 5.95151ZM49.6187 8.63249H49.7329C49.8171 8.2717 50.3314 7.10747 50.5068 6.6686L51.689 3.74308C51.898 3.23599 51.8609 3.39983 51.6072 2.76512L50.8168 0.817655H46.4812L48.062 4.71306C48.3334 5.39047 48.5803 5.97891 48.8527 6.66044C48.9961 7.01871 49.11 7.27403 49.2519 7.63023C49.3483 7.87111 49.6004 8.41104 49.6187 8.63249ZM57.2627 17.018C57.1852 16.6853 56.1334 14.2321 56.0648 13.9377C55.8651 14.0843 55.0858 16.2237 54.9734 16.4974C53.7548 19.4702 53.7758 18.7096 54.4023 20.2779L54.867 21.4675H60.0578C60.1538 21.0556 60.3955 20.5976 60.5553 20.1964C62.7727 14.615 65.1523 8.9901 67.3841 3.40903L68.4433 0.817655H63.8228L60.5549 8.90134C60.0025 10.282 59.463 11.6047 58.9169 12.968L57.6862 16.0157C57.6104 16.2052 57.5584 16.3355 57.4911 16.5047L57.2627 17.018ZM91.4892 21.4675H100.787C100.999 21.4675 101.195 20.8391 101.309 20.5628L102.408 18.0687C102.499 17.8552 102.593 17.7716 102.613 17.5315H95.9957V0.817749H91.4891L91.4892 21.4675ZM45.6828 21.4675H50.8736L51.3675 20.1931C51.471 19.963 51.5376 19.7798 51.6317 19.5441C53.7518 14.2082 56.0488 8.79164 58.1752 3.44168L58.9652 1.49346C59.0603 1.25803 59.1788 1.09776 59.2022 0.817749H54.8671C54.7957 1.12309 54.6238 1.51213 54.5001 1.81992L53.3021 4.84303C53.161 5.19397 53.0546 5.49106 52.9192 5.82924L51.689 8.87722C51.1466 10.2316 50.6454 11.5143 50.0997 12.8784C49.9588 13.23 49.8579 13.514 49.717 13.8646C49.5515 14.2766 48.5536 16.7377 48.5352 16.9613H48.4208C48.3465 16.6413 48.1737 16.2866 48.0461 15.9668C47.8992 15.5997 47.784 15.3113 47.6389 14.9479L42.032 0.817843H37.3543C37.3756 1.07279 37.7297 1.82526 37.8441 2.09683L41.5188 11.1428C42.2085 12.8661 42.9166 14.5532 43.6131 16.293C43.874 16.9449 45.6604 21.1992 45.6828 21.4675ZM0.789118 6.29392C0.789118 7.61475 1.05205 8.44642 1.79832 9.33495C2.43397 10.0918 3.19432 10.576 4.12208 10.9471C5.44122 11.4745 6.74563 11.8106 8.11085 12.2063C9.86446 12.7145 12.654 13.274 12.654 15.535C12.654 17.1542 11.2559 17.8852 9.92526 18.1112C9.2793 18.221 8.91821 18.1772 8.26165 18.1589C7.34553 18.1338 6.38399 17.6753 5.7109 17.173C4.21413 16.0564 4.70677 14.9647 4.3257 14.9647H0.104492C0.104492 18.9494 4.59895 21.5247 8.31879 21.5247C10.1491 21.5247 11.3138 21.4907 13.0215 20.808C13.4797 20.6249 14.0398 20.3395 14.4197 20.0957C15.7125 19.2663 16.8722 17.8189 16.986 16.2159C17.1668 13.6742 16.2037 11.8324 14.024 10.7426C12.1266 9.79362 9.39725 9.42306 7.44143 8.76827C6.58621 8.48207 5.1813 7.82785 5.1813 6.75034C5.1813 5.58217 5.3959 4.9394 6.41036 4.32834C7.83028 3.47274 10.9027 3.44328 12.0277 5.72236C12.1757 6.02198 12.3592 6.60207 12.3691 7.0355H16.7042C16.7042 6.35472 16.6494 5.92599 16.4412 5.30179C16.3587 5.05435 16.3109 4.90196 16.2108 4.67666C15.0356 2.0409 12.2106 0.475342 9.17448 0.475342C7.31559 0.475342 5.81985 0.57706 4.1735 1.40685C2.37035 2.31593 0.789118 3.81646 0.789118 6.29392ZM76.886 5.95142H76.9999C77.0659 6.23508 77.2343 6.58068 77.3615 6.84511L79.6487 12.088C79.7447 12.3185 80.0059 12.8155 80.0235 13.0249H73.8054L74.5635 11.2729C74.696 10.9653 74.8096 10.6826 74.9466 10.4009C75.0886 10.108 75.2037 9.78105 75.3459 9.48809L76.886 5.95142ZM65.477 21.4675H70.0977C70.1675 21.1668 72.0951 16.8264 72.2652 16.5048H81.6203C81.6867 16.7892 81.7587 16.8693 81.865 17.1157C81.9705 17.3605 82.0462 17.5164 82.1417 17.7516L83.7882 21.4675H88.3517L83.541 10.534C83.4354 10.3092 83.3636 10.1308 83.2558 9.90669C83.0415 9.4606 82.8956 9.04556 82.6852 8.59468C82.2811 7.72979 81.9564 6.88584 81.5443 6.0278C81.3473 5.61792 79.2971 1.00533 79.2816 0.817843H74.604L74.0416 2.0804C73.5379 3.3181 72.8525 4.68632 72.3304 5.95995L71.7709 7.22543C71.5594 7.66589 71.3923 8.08243 71.1976 8.53509C71.006 8.98053 70.8036 9.40476 70.612 9.83162L65.477 21.4675ZM114.763 5.95142L115.62 7.71891C116.092 8.76734 117.525 12.2065 117.958 13.0249H111.683C111.728 12.8301 111.791 12.7677 111.87 12.585C112.608 10.8864 113.63 8.45092 114.383 6.88339L114.763 5.95142ZM103.354 21.4675H107.975C108.062 21.0909 109.315 18.4184 109.58 17.7678L110.142 16.5049H119.441C119.694 16.8299 121.285 20.7477 121.665 21.4676H126.229L122.274 12.4739C121.729 11.3404 121.138 9.79315 120.563 8.59468L117.436 1.50998C117.337 1.26497 117.228 1.11615 117.159 0.817749H112.481L103.354 21.4675ZM17.3889 21.4675H22.0094C22.0269 21.2575 22.4103 20.4749 22.5243 20.214L24.177 16.5048H33.5322C33.5896 16.7514 33.677 16.9007 33.7683 17.1242L34.5916 18.9819C34.7726 19.4162 34.9449 19.7982 35.1306 20.2116C35.3118 20.6145 35.4971 21.0838 35.7001 21.4674H40.2637C40.167 21.2663 40.0914 21.0473 39.9946 20.8235L35.7241 11.1753C34.7001 8.71028 33.3859 5.95536 32.3187 3.45735C32.2079 3.19752 31.2109 1.02494 31.1937 0.817655H26.5161L25.0911 4.01295C24.9966 4.2223 24.8926 4.4522 24.8125 4.64738C24.6268 5.10108 24.4289 5.52174 24.2352 5.95236C23.4594 7.67903 22.7271 9.41574 21.9515 11.1417L17.3889 21.4675Z" fill="black"/>
<path d="M137.457 18.6316C136.021 18.6316 134.742 18.3084 133.622 17.6618C132.501 17.0013 131.625 16.1018 130.993 14.9633C130.361 13.8108 130.045 12.4897 130.045 10.9999C130.045 9.51009 130.361 8.19597 130.993 7.05754C131.625 5.90505 132.494 5.00554 133.6 4.35902C134.706 3.69845 135.978 3.36816 137.414 3.36816C138.348 3.36816 139.238 3.53682 140.086 3.87413C140.933 4.19739 141.688 4.65417 142.348 5.24447C143.023 5.82072 143.541 6.49535 143.9 7.26836L142.004 8.11164C141.731 7.5354 141.357 7.03645 140.883 6.61481C140.409 6.19317 139.87 5.86288 139.267 5.62395C138.678 5.38502 138.06 5.26555 137.414 5.26555C136.408 5.26555 135.511 5.51151 134.721 6.00343C133.931 6.49535 133.313 7.16997 132.868 8.02731C132.422 8.88465 132.2 9.87551 132.2 10.9999C132.2 12.1243 132.422 13.1222 132.868 13.9936C133.327 14.865 133.952 15.5466 134.742 16.0385C135.547 16.5164 136.459 16.7553 137.479 16.7553C138.139 16.7553 138.764 16.6288 139.353 16.3758C139.942 16.1088 140.467 15.7504 140.926 15.3006C141.4 14.8368 141.781 14.3098 142.068 13.7195L143.964 14.5417C143.605 15.3428 143.095 16.0526 142.434 16.671C141.774 17.2894 141.012 17.7743 140.151 18.1257C139.303 18.463 138.405 18.6316 137.457 18.6316Z" fill="#B4B7BA"/>
<path d="M146.091 18.3786V3.62115H148.138V18.3786H146.091Z" fill="#B4B7BA"/>
<path d="M155.842 18.6316C154.765 18.6316 153.817 18.3997 152.998 17.9359C152.179 17.4581 151.533 16.8045 151.059 15.9753C150.599 15.146 150.369 14.1903 150.369 13.1081C150.369 12.0259 150.599 11.0702 151.059 10.2409C151.518 9.41171 152.157 8.76519 152.976 8.30138C153.795 7.82352 154.736 7.58459 155.799 7.58459C156.862 7.58459 157.803 7.82352 158.622 8.30138C159.44 8.76519 160.08 9.41171 160.539 10.2409C160.999 11.0702 161.229 12.0259 161.229 13.1081C161.229 14.1903 160.999 15.146 160.539 15.9753C160.08 16.8045 159.44 17.4581 158.622 17.9359C157.817 18.3997 156.891 18.6316 155.842 18.6316ZM155.842 16.7975C156.488 16.7975 157.063 16.6429 157.566 16.3337C158.069 16.0104 158.456 15.5747 158.729 15.0266C159.017 14.4784 159.16 13.839 159.16 13.1081C159.16 12.3773 159.017 11.7378 158.729 11.1896C158.456 10.6415 158.061 10.2128 157.544 9.90362C157.027 9.58036 156.445 9.41873 155.799 9.41873C155.138 9.41873 154.556 9.58036 154.054 9.90362C153.551 10.2128 153.156 10.6415 152.868 11.1896C152.581 11.7378 152.438 12.3773 152.438 13.1081C152.438 13.839 152.581 14.4784 152.868 15.0266C153.156 15.5747 153.558 16.0104 154.075 16.3337C154.592 16.6429 155.181 16.7975 155.842 16.7975Z" fill="#B4B7BA"/>
<path d="M170.797 18.3786L170.668 16.4391V7.83758H172.693V18.3786H170.797ZM163.213 13.2346V7.83758H165.26V13.2346H163.213ZM165.26 13.2346C165.26 14.1763 165.367 14.9001 165.583 15.4061C165.813 15.912 166.129 16.2634 166.531 16.4602C166.933 16.6569 167.386 16.7623 167.888 16.7764C168.765 16.7764 169.447 16.4742 169.935 15.8699C170.424 15.2655 170.668 14.4152 170.668 13.3189H171.551C171.551 14.4293 171.379 15.385 171.034 16.1861C170.704 16.9732 170.23 17.5775 169.612 17.9992C168.995 18.4208 168.24 18.6316 167.35 18.6316C166.517 18.6316 165.784 18.463 165.152 18.1257C164.534 17.7883 164.053 17.2613 163.708 16.5445C163.378 15.8277 163.213 14.9001 163.213 13.7617V13.2346H165.26Z" fill="#B4B7BA"/>
<path d="M183.436 18.3786L183.35 16.418V3.62115H185.375V18.3786H183.436ZM179.816 18.6316C178.839 18.6316 177.984 18.3997 177.252 17.9359C176.533 17.4721 175.966 16.8256 175.549 15.9964C175.147 15.1671 174.946 14.2044 174.946 13.1081C174.946 11.9978 175.147 11.035 175.549 10.2199C175.966 9.39062 176.533 8.74411 177.252 8.2803C177.984 7.81649 178.839 7.58459 179.816 7.58459C180.721 7.58459 181.504 7.81649 182.164 8.2803C182.84 8.74411 183.357 9.39062 183.716 10.2199C184.075 11.035 184.255 11.9978 184.255 13.1081C184.255 14.2044 184.075 15.1671 183.716 15.9964C183.357 16.8256 182.84 17.4721 182.164 17.9359C181.504 18.3997 180.721 18.6316 179.816 18.6316ZM180.29 16.8186C180.893 16.8186 181.425 16.664 181.884 16.3548C182.344 16.0315 182.703 15.5958 182.962 15.0477C183.22 14.4855 183.35 13.839 183.35 13.1081C183.35 12.3773 183.22 11.7378 182.962 11.1896C182.703 10.6274 182.344 10.1917 181.884 9.88254C181.425 9.55928 180.886 9.39765 180.268 9.39765C179.636 9.39765 179.076 9.55928 178.588 9.88254C178.099 10.1917 177.719 10.6274 177.446 11.1896C177.173 11.7378 177.036 12.3773 177.036 13.1081C177.036 13.839 177.173 14.4855 177.446 15.0477C177.733 15.5958 178.121 16.0315 178.609 16.3548C179.098 16.664 179.658 16.8186 180.29 16.8186Z" fill="#B4B7BA"/>
</svg>
