<svg width="136" height="34" viewBox="0 0 136 34" fill="none" xmlns="http://www.w3.org/2000/svg">
<path fill-rule="evenodd" clip-rule="evenodd" d="M14.1335 14.5298H14.2459C14.3288 14.1747 14.835 13.0288 15.0077 12.5968L16.1713 9.71732C16.3769 9.2182 16.3405 9.37946 16.0907 8.75474L15.3128 6.83789H11.0454L12.6013 10.672C12.8685 11.3388 13.1115 11.918 13.3796 12.5888C13.5207 12.9414 13.6328 13.1927 13.7725 13.5433C13.8673 13.7804 14.1155 14.3119 14.1335 14.5298ZM21.6574 22.7834C21.5811 22.456 20.5458 20.0414 20.4783 19.7516C20.2817 19.8959 19.5146 22.0017 19.4041 22.271C18.2046 25.1971 18.2253 24.4485 18.8419 25.9921L19.2993 27.163H24.4085C24.503 26.7576 24.7409 26.3068 24.8981 25.9119C27.0807 20.4183 29.4228 14.8818 31.6195 9.38851L32.6621 6.83789H28.1143L24.8977 14.7945C24.354 16.1534 23.823 17.4554 23.2855 18.7972L22.0742 21.7969C21.9996 21.9835 21.9484 22.1117 21.8821 22.2782L21.6574 22.7834ZM10.2595 27.163H15.3687L15.8548 25.9086C15.9567 25.6822 16.0223 25.5019 16.1149 25.2699C18.2016 20.0179 20.4625 14.6865 22.5555 9.42066L23.3331 7.50307C23.4266 7.27134 23.5433 7.11359 23.5664 6.83798H19.2994C19.2291 7.13852 19.0599 7.52145 18.9382 7.82439L17.759 10.8C17.6201 11.1454 17.5154 11.4378 17.3821 11.7707L16.1713 14.7707C15.6374 16.1039 15.1441 17.3663 14.6069 18.709C14.4683 19.055 14.3689 19.3346 14.2303 19.6797C14.0674 20.0852 13.0852 22.5076 13.067 22.7277H12.9544C12.8813 22.4127 12.7113 22.0636 12.5856 21.7488C12.4411 21.3875 12.3277 21.1036 12.1849 20.746L6.66608 6.83808H2.06201C2.08298 7.08902 2.43145 7.82966 2.54404 8.09695L6.16096 17.0007C6.83981 18.6969 7.53685 20.3574 8.22235 22.0699C8.47911 22.7115 10.2375 26.8989 10.2595 27.163Z" fill="#222222"/>
<path d="M45.4429 25.2331C44.5363 25.2331 43.6814 25.0712 42.8784 24.7474C42.0883 24.4107 41.4018 23.9379 40.8189 23.3291C40.249 22.7204 39.8216 22.0015 39.5367 21.1726L42.0041 20.0651C42.3667 20.8552 42.8654 21.477 43.5001 21.9303C44.1477 22.3836 44.8601 22.6103 45.6372 22.6103C46.0517 22.6103 46.4079 22.5455 46.7058 22.416C47.0037 22.2865 47.2368 22.1116 47.4052 21.8914C47.5736 21.6583 47.6578 21.3863 47.6578 21.0754C47.6578 20.7387 47.5542 20.4537 47.3469 20.2206C47.1397 19.9745 46.8159 19.7802 46.3755 19.6377L43.5389 18.7051C42.3862 18.3295 41.5184 17.7985 40.9355 17.112C40.3527 16.4126 40.0612 15.5771 40.0612 14.6057C40.0612 13.7509 40.2685 12.9996 40.6829 12.352C41.1104 11.7044 41.6997 11.1992 42.4509 10.8366C43.2151 10.4739 44.0894 10.2926 45.0738 10.2926C45.9416 10.2926 46.7447 10.4415 47.4829 10.7394C48.2212 11.0373 48.8559 11.4583 49.3869 12.0023C49.9309 12.5463 50.3389 13.2004 50.6109 13.9646L48.1629 15.072C47.8909 14.3985 47.4829 13.8739 46.9389 13.4983C46.3949 13.1097 45.7732 12.9154 45.0738 12.9154C44.6723 12.9154 44.3161 12.9802 44.0052 13.1097C43.6944 13.2392 43.4547 13.427 43.2864 13.6731C43.118 13.9063 43.0338 14.1783 43.0338 14.4891C43.0338 14.8259 43.1439 15.1238 43.3641 15.3829C43.5843 15.629 43.9146 15.8232 44.3549 15.9657L47.1332 16.8594C48.2989 17.235 49.1667 17.7596 49.7367 18.4331C50.3195 19.1067 50.6109 19.9291 50.6109 20.9006C50.6109 21.7425 50.3907 22.4937 49.9504 23.1543C49.51 23.8019 48.9012 24.3135 48.1241 24.6891C47.3599 25.0518 46.4662 25.2331 45.4429 25.2331ZM55.8267 25.2331C55.0626 25.2331 54.402 25.1101 53.845 24.864C53.2881 24.6179 52.8607 24.2682 52.5627 23.8149C52.2648 23.3486 52.1159 22.7981 52.1159 22.1634C52.1159 21.5676 52.2519 21.043 52.5239 20.5897C52.7959 20.1234 53.2104 19.7349 53.7673 19.424C54.3372 19.1131 55.0431 18.893 55.885 18.7634L59.1296 18.2389V20.376L56.4096 20.8617C55.9951 20.9394 55.6778 21.0754 55.4576 21.2697C55.2374 21.451 55.1273 21.7166 55.1273 22.0663C55.1273 22.3901 55.2504 22.6427 55.4965 22.824C55.7426 23.0053 56.0469 23.096 56.4096 23.096C56.8888 23.096 57.3098 22.9924 57.6725 22.7851C58.0351 22.5779 58.3136 22.2994 58.5079 21.9497C58.7151 21.587 58.8187 21.192 58.8187 20.7646V18.0057C58.8187 17.6042 58.6568 17.2674 58.333 16.9954C58.0222 16.7234 57.5947 16.5874 57.0507 16.5874C56.5327 16.5874 56.0728 16.7299 55.6713 17.0149C55.2827 17.2998 54.9978 17.6754 54.8165 18.1417L52.485 17.0343C52.6923 16.4385 53.0226 15.9269 53.4759 15.4994C53.9292 15.072 54.4732 14.7417 55.1079 14.5086C55.7426 14.2754 56.4355 14.1589 57.1867 14.1589C58.0805 14.1589 58.8706 14.3208 59.557 14.6446C60.2435 14.9684 60.7746 15.4217 61.1502 16.0046C61.5387 16.5745 61.733 17.2415 61.733 18.0057V25H59.013V23.2903L59.6736 23.1737C59.3627 23.64 59.0195 24.0286 58.6439 24.3394C58.2683 24.6373 57.8473 24.8575 57.381 25C56.9147 25.1554 56.3967 25.2331 55.8267 25.2331ZM66.668 25L63.0155 14.392H66.0269L68.5915 22.0469L67.5423 22.0274L70.3983 14.392H72.924L75.7606 22.0274L74.7115 22.0469L77.276 14.392H80.3069L76.6349 25H74.1092L71.156 16.8011H72.1663L69.1938 25H66.668ZM84.4953 25.2331C83.7311 25.2331 83.0705 25.1101 82.5136 24.864C81.9566 24.6179 81.5292 24.2682 81.2313 23.8149C80.9334 23.3486 80.7844 22.7981 80.7844 22.1634C80.7844 21.5676 80.9204 21.043 81.1924 20.5897C81.4644 20.1234 81.8789 19.7349 82.4358 19.424C83.0057 19.1131 83.7117 18.893 84.5536 18.7634L87.7981 18.2389V20.376L85.0781 20.8617C84.6637 20.9394 84.3463 21.0754 84.1261 21.2697C83.9059 21.451 83.7958 21.7166 83.7958 22.0663C83.7958 22.3901 83.9189 22.6427 84.165 22.824C84.4111 23.0053 84.7155 23.096 85.0781 23.096C85.5574 23.096 85.9783 22.9924 86.341 22.7851C86.7037 22.5779 86.9821 22.2994 87.1764 21.9497C87.3837 21.587 87.4873 21.192 87.4873 20.7646V18.0057C87.4873 17.6042 87.3254 17.2674 87.0016 16.9954C86.6907 16.7234 86.2633 16.5874 85.7193 16.5874C85.2012 16.5874 84.7414 16.7299 84.3398 17.0149C83.9513 17.2998 83.6663 17.6754 83.485 18.1417L81.1536 17.0343C81.3608 16.4385 81.6911 15.9269 82.1444 15.4994C82.5977 15.072 83.1417 14.7417 83.7764 14.5086C84.4111 14.2754 85.104 14.1589 85.8553 14.1589C86.749 14.1589 87.5391 14.3208 88.2256 14.6446C88.912 14.9684 89.4431 15.4217 89.8187 16.0046C90.2073 16.5745 90.4016 17.2415 90.4016 18.0057V25H87.6816V23.2903L88.3421 23.1737C88.0313 23.64 87.688 24.0286 87.3124 24.3394C86.9368 24.6373 86.5158 24.8575 86.0496 25C85.5833 25.1554 85.0652 25.2331 84.4953 25.2331ZM92.5389 25V10.2926H95.4531V25H92.5389ZM100.869 25.2331C100.105 25.2331 99.4444 25.1101 98.8874 24.864C98.3305 24.6179 97.9031 24.2682 97.6052 23.8149C97.3072 23.3486 97.1583 22.7981 97.1583 22.1634C97.1583 21.5676 97.2943 21.043 97.5663 20.5897C97.8383 20.1234 98.2528 19.7349 98.8097 19.424C99.3796 19.1131 100.086 18.893 100.927 18.7634L104.172 18.2389V20.376L101.452 20.8617C101.038 20.9394 100.72 21.0754 100.5 21.2697C100.28 21.451 100.17 21.7166 100.17 22.0663C100.17 22.3901 100.293 22.6427 100.539 22.824C100.785 23.0053 101.089 23.096 101.452 23.096C101.931 23.096 102.352 22.9924 102.715 22.7851C103.078 22.5779 103.356 22.2994 103.55 21.9497C103.758 21.587 103.861 21.192 103.861 20.7646V18.0057C103.861 17.6042 103.699 17.2674 103.375 16.9954C103.065 16.7234 102.637 16.5874 102.093 16.5874C101.575 16.5874 101.115 16.7299 100.714 17.0149C100.325 17.2998 100.04 17.6754 99.8589 18.1417L97.5274 17.0343C97.7347 16.4385 98.065 15.9269 98.5183 15.4994C98.9716 15.072 99.5156 14.7417 100.15 14.5086C100.785 14.2754 101.478 14.1589 102.229 14.1589C103.123 14.1589 103.913 14.3208 104.599 14.6446C105.286 14.9684 105.817 15.4217 106.193 16.0046C106.581 16.5745 106.775 17.2415 106.775 18.0057V25H104.055V23.2903L104.716 23.1737C104.405 23.64 104.062 24.0286 103.686 24.3394C103.311 24.6373 102.89 24.8575 102.423 25C101.957 25.1554 101.439 25.2331 100.869 25.2331ZM110.35 25V22.0857H113.265V25H110.35ZM115.989 25L120.885 10.5257H124.887L129.783 25H126.5L125.528 22.0469H120.224L119.253 25H115.989ZM121.06 19.424H124.693L122.478 12.5851H123.294L121.06 19.424ZM131.073 25V14.392H133.988V25H131.073ZM131.073 13.44V10.5257H133.988V13.44H131.073Z" fill="#222222"/>
</svg>
